<?xml version="1.0" encoding="UTF-8" standalone="no"?>
<!-- Created with Inkscape (http://www.inkscape.org/) -->

<svg
   xmlns:dc="http://purl.org/dc/elements/1.1/"
   xmlns:cc="http://creativecommons.org/ns#"
   xmlns:rdf="http://www.w3.org/1999/02/22-rdf-syntax-ns#"
   xmlns:svg="http://www.w3.org/2000/svg"
   xmlns="http://www.w3.org/2000/svg"
   xmlns:sodipodi="http://sodipodi.sourceforge.net/DTD/sodipodi-0.dtd"
   xmlns:inkscape="http://www.inkscape.org/namespaces/inkscape"
   id="svg2"
   version="1.1"
   inkscape:version="0.91 r13725"
   xml:space="preserve"
   width="1000.6666"
   height="600.75"
   viewBox="0 0 1000.6666 600.74998"
   sodipodi:docname="head.svg"
   style="enable-background:new"><metadata
     id="metadata8"><rdf:RDF><cc:Work
         rdf:about=""><dc:format>image/svg+xml</dc:format><dc:type
           rdf:resource="http://purl.org/dc/dcmitype/StillImage" /><dc:title></dc:title></cc:Work></rdf:RDF></metadata><defs
     id="defs6" /><sodipodi:namedview
     pagecolor="#ffffff"
     bordercolor="#666666"
     borderopacity="1"
     objecttolerance="10"
     gridtolerance="10"
     guidetolerance="10"
     inkscape:pageopacity="0"
     inkscape:pageshadow="2"
     inkscape:window-width="1172"
     inkscape:window-height="654"
     id="namedview4"
     showgrid="false"
     width="1101.6666px"
     fit-margin-top="0"
     fit-margin-left="0"
     fit-margin-right="0"
     fit-margin-bottom="0"
     inkscape:zoom="0.82694885"
     inkscape:cx="416.59408"
     inkscape:cy="354.71643"
     inkscape:window-x="86"
     inkscape:window-y="1"
     inkscape:window-maximized="0"
     inkscape:current-layer="layer1" /><g
     inkscape:groupmode="layer"
     id="layer1"
     inkscape:label="Doc Mar 12, 2017, 19:27"
     style="display:inline"
     transform="translate(0,-143)"><g
       id="g6954"
       transform="matrix(0.73332785,0,0,0.61663484,112.3681,285.83826)"><path
         inkscape:connector-curvature="0"
         id="path4401"
         d="M 972.22508,453.02306 Z"
         style="fill:none;fill-rule:evenodd;stroke:#000000;stroke-width:1px;stroke-linecap:butt;stroke-linejoin:miter;stroke-opacity:1" /><path
         sodipodi:nodetypes="czc"
         inkscape:connector-curvature="0"
         id="path4531"
         d="m 926.0508,744.60508 c 0,0 38.66688,-70.03142 41.89888,-107.73999 3.232,-37.70856 -29.07269,-99.18918 -29.07269,-99.18918"
         style="fill:none;fill-rule:evenodd;stroke:#000000;stroke-width:1px;stroke-linecap:butt;stroke-linejoin:miter;stroke-opacity:1" /><path
         sodipodi:nodetypes="czzccc"
         inkscape:connector-curvature="0"
         id="path4533"
         d="m 997.02238,744.60508 c 0,0 45.40502,-109.34337 45.31922,-161.60997 -0.086,-52.2666 -23.6631,-90.42008 -28.2176,-118.85601 -4.5545,-28.43593 -5.9856,-75.24698 -5.9856,-75.24698 l 0,0 1.7102,25.65238"
         style="fill:none;fill-rule:evenodd;stroke:#000000;stroke-width:1px;stroke-linecap:butt;stroke-linejoin:miter;stroke-opacity:1" /><path
         sodipodi:nodetypes="czcc"
         inkscape:connector-curvature="0"
         id="path4535"
         d="m 930.3262,742.89492 c 0,0 34.96903,-69.38267 35.91332,-105.17474 0.94429,-35.79207 -27.36253,-100.04427 -27.36253,-100.04427 l 0,0"
         style="fill:none;fill-rule:evenodd;stroke:#000000;stroke-width:1.70000005;stroke-linecap:butt;stroke-linejoin:miter;stroke-miterlimit:4;stroke-dasharray:none;stroke-opacity:1" /><path
         sodipodi:nodetypes="czszc"
         inkscape:connector-curvature="0"
         id="path4537"
         d="m 1007.2833,744.60508 c 0,0 34.3431,-103.34158 36.7685,-136.81267 2.4254,-33.47109 -4.6421,-85.48476 -11.9712,-101.75443 -3.5537,-7.88868 -11.7526,-34.87553 -16.2465,-59.00047 -4.4938,-24.12494 -2.5652,-65.8411 -2.5652,-65.8411"
         style="fill:none;fill-rule:evenodd;stroke:#000000;stroke-width:1px;stroke-linecap:butt;stroke-linejoin:miter;stroke-opacity:1" /><path
         sodipodi:nodetypes="czzccc"
         inkscape:connector-curvature="0"
         id="path4539"
         d="m 934.60159,745.46016 c 0,0 28.29506,-61.96228 32.49301,-87.21808 4.19796,-25.2558 4.28312,-28.57803 0,-47.88444 -4.28311,-19.30641 -28.21761,-76.95713 -28.21761,-76.95713 l 0,0 2.56524,0.85508"
         style="fill:none;fill-rule:evenodd;stroke:#000000;stroke-width:1px;stroke-linecap:butt;stroke-linejoin:miter;stroke-opacity:1" /><path
         sodipodi:nodetypes="czzzcc"
         inkscape:connector-curvature="0"
         id="path4541"
         d="m 1011.5587,743.75 c 0,0 29.946,-105.41904 34.2032,-136.81267 4.2573,-31.39364 2.3834,-28.52697 0.855,-45.3192 -1.5283,-16.79224 -5.8309,-33.71909 -11.116,-54.72507 -5.285,-21.00599 -19.6668,-74.3919 -19.6668,-74.3919 l -2.5652,-27.36253"
         style="fill:none;fill-rule:evenodd;stroke:#000000;stroke-width:1.70000005;stroke-linecap:butt;stroke-linejoin:miter;stroke-miterlimit:4;stroke-dasharray:none;stroke-opacity:1" /><path
         sodipodi:nodetypes="zzzzzzzz"
         inkscape:connector-curvature="0"
         id="path4543"
         d="m 906.38398,466.70433 c -6.81896,4.9848 -16.01606,17.14953 -17.10159,24.7973 -1.08553,7.64777 -1.16483,9.56177 5.13048,15.39142 6.29531,5.82965 24.00566,11.49248 34.20317,8.5508 10.19751,-2.94168 17.46929,-12.73429 19.66682,-20.5219 2.19753,-7.78761 -0.49621,-13.53269 -4.2754,-19.66683 -3.77919,-6.13414 -10.81438,-13.14391 -17.95666,-14.53634 -7.14228,-1.39243 -12.84786,1.00075 -19.66682,5.98555 z"
         style="fill:none;fill-rule:evenodd;stroke:#000000;stroke-width:1px;stroke-linecap:butt;stroke-linejoin:miter;stroke-opacity:1" /><path
         sodipodi:nodetypes="czzzcc"
         inkscape:connector-curvature="0"
         id="path4545"
         d="m 901.2535,512.87861 c 0,0 -15.82334,11.87218 -15.39142,24.7973 0.43192,12.92512 12.97702,41.35354 28.21761,39.33364 15.24059,-2.0199 14.71598,-30.09481 15.39143,-41.0438 0.67545,-10.94899 -5.13048,-21.37698 -5.13048,-21.37698 z"
         style="fill:none;fill-rule:evenodd;stroke:#000000;stroke-width:1.20000005;stroke-linecap:butt;stroke-linejoin:miter;stroke-miterlimit:4;stroke-dasharray:none;stroke-opacity:1" /><path
         sodipodi:nodetypes="czzzcc"
         inkscape:connector-curvature="0"
         id="path4547"
         d="m 922.63048,516.29893 c 0,0 -3.51586,23.72702 2.56524,31.63793 6.0811,7.91091 17.92837,13.93264 26.50746,9.40587 8.57909,-4.52677 10.53455,-19.73649 7.69571,-29.07269 -2.83884,-9.3362 -21.37698,-18.81175 -21.37698,-18.81175 z"
         style="fill:none;fill-rule:evenodd;stroke:#000000;stroke-width:1.39999998;stroke-linecap:butt;stroke-linejoin:miter;stroke-miterlimit:4;stroke-dasharray:none;stroke-opacity:1" /><path
         sodipodi:nodetypes="czzzzcc"
         inkscape:connector-curvature="0"
         id="path4549"
         d="m 901.2535,511.16845 c 0,0 -8.22065,14.9831 -17.10158,20.5219 -8.88093,5.5388 -25.53487,16.55704 -35.05825,8.55079 -9.52338,-8.00625 -4.46891,-29.80844 2.56524,-38.47856 7.03415,-8.67012 20.9755,-6.81463 27.36253,-7.69571 6.38703,-0.88108 10.26095,0 10.26095,0 z"
         style="fill:none;fill-rule:evenodd;stroke:#000000;stroke-width:1px;stroke-linecap:butt;stroke-linejoin:miter;stroke-opacity:1" /><path
         sodipodi:nodetypes="czzzcc"
         inkscape:connector-curvature="0"
         id="path4551"
         d="m 889.28239,493.21179 c 0,0 -22.422,5.31801 -31.63793,-1.71016 -9.21593,-7.02817 -17.9706,-26.46971 -11.97111,-35.91333 5.99949,-9.44362 19.28104,-5.88728 29.0727,-3.42032 9.79166,2.46696 25.65237,17.95667 25.65237,17.95667 z"
         style="fill:none;fill-rule:evenodd;stroke:#000000;stroke-width:1px;stroke-linecap:butt;stroke-linejoin:miter;stroke-opacity:1" /><path
         inkscape:connector-curvature="0"
         id="path4553"
         d="M 887.57224,493.21179 Z"
         style="fill:none;fill-rule:evenodd;stroke:#000000;stroke-width:1px;stroke-linecap:butt;stroke-linejoin:miter;stroke-opacity:1" /><path
         sodipodi:nodetypes="czzzcc"
         inkscape:connector-curvature="0"
         id="path4555"
         d="m 902.10858,470.97973 c 0,0 -15.28718,-3.9001 -20.5219,-13.68127 -5.23472,-9.78117 -10.38413,-34.72539 0,-41.89888 10.38413,-7.17349 24.10922,3.30341 31.63793,11.97111 7.52871,8.6677 7.69571,34.20317 7.69571,34.20317 z"
         style="fill:none;fill-rule:evenodd;stroke:#000000;stroke-width:1px;stroke-linecap:butt;stroke-linejoin:miter;stroke-opacity:1" /><path
         sodipodi:nodetypes="czzzcc"
         inkscape:connector-curvature="0"
         id="path4557"
         d="m 922.63048,459.00862 c 0,0 -6.81643,-21.52825 -0.85508,-30.78285 5.96135,-9.2546 22.67955,-19.11596 32.49301,-13.68127 9.81346,5.43469 7.2488,21.12958 5.13048,31.63793 -2.11832,10.50835 -17.10158,27.36254 -17.10158,27.36254 z"
         style="fill:none;fill-rule:evenodd;stroke:#000000;stroke-width:1px;stroke-linecap:butt;stroke-linejoin:miter;stroke-opacity:1" /><path
         inkscape:connector-curvature="0"
         id="path4559"
         d="M 924.34064,459.00862 Z"
         style="fill:none;fill-rule:evenodd;stroke:#000000;stroke-width:1px;stroke-linecap:butt;stroke-linejoin:miter;stroke-opacity:1" /><path
         sodipodi:nodetypes="czzzcc"
         inkscape:connector-curvature="0"
         id="path4561"
         d="m 941.44223,475.25512 c 0,0 1.85022,-20.21286 11.97111,-25.65237 10.12089,-5.43951 34.47901,-5.43245 40.18872,5.98555 5.70971,11.418 -7.5395,26.4931 -17.10159,31.63793 -9.56209,5.14483 -29.07269,-2.56524 -29.07269,-2.56524 z"
         style="fill:none;fill-rule:evenodd;stroke:#000000;stroke-width:1px;stroke-linecap:butt;stroke-linejoin:miter;stroke-opacity:1" /><path
         sodipodi:nodetypes="czzzcc"
         inkscape:connector-curvature="0"
         id="path4563"
         d="m 949.85969,491.17101 c 0,0 18.6587,-10.67728 28.14037,-7.51162 9.48167,3.16566 23.20854,12.36545 20.4757,25.0799 -2.73287,12.71443 -26.36528,19.7929 -37.09164,17.53741 -10.72634,-2.25549 -17.7395,-20.05531 -17.7395,-20.05531 z"
         style="fill:none;fill-rule:evenodd;stroke:#000000;stroke-width:1.03192484px;stroke-linecap:butt;stroke-linejoin:miter;stroke-opacity:1" /><path
         sodipodi:nodetypes="czcc"
         inkscape:connector-curvature="0"
         id="path4565"
         d="m 1008.1384,389.7472 c 0,0 -1.4888,-12.02021 -5.9856,-20.5219 -4.4967,-8.50169 -21.37693,-27.36254 -21.37693,-27.36254 l 0,0"
         style="fill:none;fill-rule:evenodd;stroke:#000000;stroke-width:1px;stroke-linecap:butt;stroke-linejoin:miter;stroke-opacity:1" /><path
         inkscape:connector-curvature="0"
         id="path4567"
         d="M 1013.2689,382.90657 Z"
         style="fill:none;fill-rule:evenodd;stroke:#000000;stroke-width:1px;stroke-linecap:butt;stroke-linejoin:miter;stroke-opacity:1" /><path
         sodipodi:nodetypes="czc"
         inkscape:connector-curvature="0"
         id="path4569"
         d="m 1012.4139,382.05149 c 0,0 -3.4583,-12.64392 -8.5509,-20.5219 -5.09258,-7.87798 -23.08713,-25.65238 -23.08713,-25.65238"
         style="fill:none;fill-rule:evenodd;stroke:#000000;stroke-width:1px;stroke-linecap:butt;stroke-linejoin:miter;stroke-opacity:1" /><path
         sodipodi:nodetypes="zzzzzzz"
         inkscape:connector-curvature="0"
         id="path4571"
         d="m 926.0508,281.15214 c -8.59709,10.09001 -11.1025,29.53973 -7.69571,37.62349 3.40679,8.08376 2.93579,5.64209 11.97111,7.69571 9.03532,2.05362 30.52853,2.88065 41.0438,-5.13048 10.51527,-8.01113 16.94045,-24.15345 14.53635,-35.05825 -2.4041,-10.9048 -9.89358,-17.44314 -21.37698,-19.66682 -11.4834,-2.22368 -29.88148,4.44634 -38.47857,14.53635 z"
         style="fill:none;fill-rule:evenodd;stroke:#000000;stroke-width:1px;stroke-linecap:butt;stroke-linejoin:miter;stroke-opacity:1" /><path
         sodipodi:nodetypes="czzzcc"
         inkscape:connector-curvature="0"
         id="path4573"
         d="m 972.22508,321.34086 c 0,0 9.98403,15.0392 9.40587,28.21762 -0.57816,13.17842 -3.06848,43.48097 -19.66682,45.3192 -16.59834,1.83823 -28.12006,-28.15013 -29.92778,-41.04381 -1.80772,-12.89368 9.40588,-25.65237 9.40588,-25.65237 z"
         style="fill:none;fill-rule:evenodd;stroke:#000000;stroke-width:1.20000005;stroke-linecap:butt;stroke-linejoin:miter;stroke-miterlimit:4;stroke-dasharray:none;stroke-opacity:1" /><path
         sodipodi:nodetypes="czzzcc"
         inkscape:connector-curvature="0"
         id="path4575"
         d="m 938.87699,326.47134 c 0,0 0.46815,15.02869 -4.2754,25.65238 -4.74355,10.62369 -12.49618,36.58795 -27.36253,34.20316 -14.86635,-2.38479 -20.65512,-30.27777 -16.24651,-43.60904 4.40861,-13.33127 31.63793,-20.5219 31.63793,-20.5219 z"
         style="fill:none;fill-rule:evenodd;stroke:#000000;stroke-width:1.60000002;stroke-linecap:butt;stroke-linejoin:miter;stroke-miterlimit:4;stroke-dasharray:none;stroke-opacity:1" /><path
         inkscape:connector-curvature="0"
         id="path4577"
         d="M 938.87699,325.61626 Z"
         style="fill:none;fill-rule:evenodd;stroke:#000000;stroke-width:1px;stroke-linecap:butt;stroke-linejoin:miter;stroke-opacity:1" /><path
         sodipodi:nodetypes="czzzcc"
         inkscape:connector-curvature="0"
         id="path4579"
         d="m 921.7754,322.19594 c 0,0 -32.62758,17.73601 -47.02935,14.53635 -14.40177,-3.19966 -33.09873,-14.06531 -30.78286,-29.0727 2.31587,-15.00739 27.8886,-21.88125 41.04381,-21.37698 13.15521,0.50427 32.49301,15.39143 32.49301,15.39143 z"
         style="fill:none;fill-rule:evenodd;stroke:#000000;stroke-width:1px;stroke-linecap:butt;stroke-linejoin:miter;stroke-opacity:1" /><path
         sodipodi:nodetypes="czzzcc"
         inkscape:connector-curvature="0"
         id="path4581"
         d="m 917.50001,300.81896 c 0,0 -24.00781,-5.79583 -35.05825,-14.53635 -11.05044,-8.74052 -33.45776,-27.33751 -23.08714,-38.47856 10.37062,-11.14105 39.34428,-12.39819 49.5946,-5.13048 10.25032,7.26771 21.37698,34.20317 21.37698,34.20317 z"
         style="fill:none;fill-rule:evenodd;stroke:#000000;stroke-width:1.5;stroke-linecap:butt;stroke-linejoin:miter;stroke-miterlimit:4;stroke-dasharray:none;stroke-opacity:1" /><path
         sodipodi:nodetypes="czzzcc"
         inkscape:connector-curvature="0"
         id="path4583"
         d="m 967.94968,323.05102 c 0,0 7.31572,13.84722 17.10159,18.81174 9.78587,4.96452 40.70833,12.30301 49.59463,0.85508 8.8863,-11.44793 -16.8303,-32.50682 -25.6524,-40.18872 -8.8221,-7.6819 -23.08715,-5.13048 -23.08715,-5.13048 z"
         style="fill:none;fill-rule:evenodd;stroke:#000000;stroke-width:1.39999998;stroke-linecap:butt;stroke-linejoin:miter;stroke-miterlimit:4;stroke-dasharray:none;stroke-opacity:1" /><path
         sodipodi:nodetypes="czzzcc"
         inkscape:connector-curvature="0"
         id="path4585"
         d="m 985.90635,296.54357 c 0,0 15.81215,11.66348 29.07265,11.9711 13.2605,0.30762 32.942,-18.0977 35.9133,-35.91332 2.9713,-17.81562 -33.0921,-15.47994 -49.5945,-16.24651 -16.50243,-0.76657 -20.52193,19.66682 -20.52193,19.66682 z"
         style="fill:none;fill-rule:evenodd;stroke:#000000;stroke-width:1.5;stroke-linecap:butt;stroke-linejoin:miter;stroke-miterlimit:4;stroke-dasharray:none;stroke-opacity:1" /><path
         sodipodi:nodetypes="czzcc"
         inkscape:connector-curvature="0"
         id="path4587"
         d="m 932.03635,275.16658 c -23.94221,-29.07269 -22.26505,-58.82161 -8.55079,-70.11649 13.71426,-11.29488 25.3368,-0.25808 34.20317,11.11603 8.86637,11.37411 3.42032,50.44967 3.42032,50.44967 z"
         style="fill:none;fill-rule:evenodd;stroke:#000000;stroke-width:1px;stroke-linecap:butt;stroke-linejoin:miter;stroke-opacity:1" /><path
         sodipodi:nodetypes="czzzzcc"
         inkscape:connector-curvature="0"
         id="path4589"
         d="m 961.96413,266.61579 c 0,0 -11.62111,-11.07377 -8.55079,-25.65237 3.07032,-14.5786 31.88466,-43.73974 49.59456,-38.47857 17.71,5.26117 11.8431,17.7162 11.116,29.92777 -0.7271,12.21157 -13.9878,28.43664 -17.9566,34.20317 -3.96882,5.76653 -13.68127,10.26095 -13.68127,10.26095 z"
         style="fill:none;fill-rule:evenodd;stroke:#000000;stroke-width:1px;stroke-linecap:butt;stroke-linejoin:miter;stroke-opacity:1" /><path
         sodipodi:nodetypes="czzzzcc"
         inkscape:connector-curvature="0"
         id="path4591"
         d="m 963.67429,653.96668 c 0,0 -25.94712,-2.87428 -37.62349,-11.11603 -11.67637,-8.24175 -36.05869,-25.04653 -27.36254,-37.62348 8.69615,-12.57695 33.60865,6.15655 43.60905,11.9711 10.0004,5.81455 13.15898,12.92026 17.10158,17.10159 3.9426,4.18133 6.84063,7.69571 6.84063,7.69571 z"
         style="fill:none;fill-rule:evenodd;stroke:#000000;stroke-width:1px;stroke-linecap:butt;stroke-linejoin:miter;stroke-opacity:1" /><path
         sodipodi:nodetypes="czcc"
         inkscape:connector-curvature="0"
         id="path4593"
         d="m 965.38444,650.54636 c 0,0 -15.30082,-7.19536 -23.94221,-12.82618 -8.64139,-5.63082 -27.36254,-21.37698 -27.36254,-21.37698 l 0,0"
         style="fill:none;fill-rule:evenodd;stroke:#000000;stroke-width:1.70000005;stroke-linecap:butt;stroke-linejoin:miter;stroke-miterlimit:4;stroke-dasharray:none;stroke-opacity:1" /><path
         sodipodi:nodetypes="czzzczzzcc"
         inkscape:connector-curvature="0"
         id="path4597"
         d="m 1038.0662,513.73369 c 0,0 -0.4327,-39.61744 4.2754,-53.01491 4.7081,-13.39747 13.9875,-18.34426 17.9566,-26.50746 3.9691,-8.1632 6.4454,-15.91672 6.8407,-21.37698 0.3953,-5.46026 -1.7102,-10.26095 -1.7102,-10.26095 0,0 16.9826,35.24554 19.6668,50.44967 2.6842,15.20413 3.662,26.85068 -0.855,38.47857 -4.517,11.62789 -15.8341,22.57893 -23.9423,27.36253 -8.1082,4.7836 -19.6668,4.2754 -19.6668,4.2754 z"
         style="fill:none;fill-rule:evenodd;stroke:#000000;stroke-width:1px;stroke-linecap:butt;stroke-linejoin:miter;stroke-opacity:1" /><path
         sodipodi:nodetypes="czzcc"
         inkscape:connector-curvature="0"
         id="path4599"
         d="m 1039.7763,521.4294 c 0,0 21.6054,-23.87894 26.5075,-33.34809 4.9021,-9.46915 4.9352,-14.33611 5.9855,-20.5219 1.0503,-6.18579 0.8551,-16.2465 0.8551,-16.2465 l 0,0"
         style="fill:none;fill-rule:evenodd;stroke:#000000;stroke-width:1.70000005;stroke-linecap:butt;stroke-linejoin:miter;stroke-miterlimit:4;stroke-dasharray:none;stroke-opacity:1" /><path
         sodipodi:nodetypes="czcc"
         inkscape:connector-curvature="0"
         id="path4601"
         d="m 961.96413,264.90563 c 0,0 -10.07443,-21.74472 -9.40587,-29.07269 0.66856,-7.32797 8.55079,-10.26095 8.55079,-10.26095 l 0,0.85508"
         style="fill:none;fill-rule:evenodd;stroke:#000000;stroke-width:1px;stroke-linecap:butt;stroke-linejoin:miter;stroke-opacity:1" /><path
         sodipodi:nodetypes="czzzzzzzzzzzzzzszzzcc"
         inkscape:connector-curvature="0"
         id="path4603"
         d="m 887.57224,494.92195 c 0,0 13.44499,11.51326 21.37698,13.68126 7.93199,2.168 16.97747,3.47543 23.94221,-0.85508 6.96474,-4.33051 13.05049,-14.87778 11.97111,-22.23206 -1.07938,-7.35428 -8.25854,-11.26618 -13.68126,-13.68126 -5.42272,-2.41508 -10.38972,-2.31268 -16.24651,-0.85508 -5.85679,1.4576 -14.34144,5.05415 -17.10158,10.26095 -2.76014,5.2068 -3.42712,10.52467 0.85507,15.39142 4.28219,4.86675 17.77109,3.78732 23.08714,4.2754 5.31605,0.48808 4.61118,1.87514 8.5508,0 3.93962,-1.87514 11.53352,-7.43021 11.11603,-13.68127 -0.41749,-6.25106 -9.12768,-11.71813 -14.53635,-13.68126 -5.40867,-1.96313 -10.10616,-2.54013 -14.53635,0.85507 -4.43019,3.3952 -9.68378,12.14972 -5.98555,17.95667 3.69823,5.80695 17.27037,5.25098 22.23206,2.56524 4.96169,-2.68574 8.55079,-9.40588 5.13047,-10.26096 -3.42031,-0.85507 -7.48433,-10.11324 -12.82619,-9.40587 -5.34186,0.70737 -12.37287,8.43208 -10.26095,12.82619 2.11192,4.39411 11.31686,3.32621 12.82619,0 1.50933,-3.32621 -5.98555,-6.84063 -5.98555,-6.84063 l -1.71016,0"
         style="fill:none;fill-rule:evenodd;stroke:#000000;stroke-width:1.29999995;stroke-linecap:butt;stroke-linejoin:miter;stroke-miterlimit:4;stroke-dasharray:none;stroke-opacity:1" /><path
         sodipodi:nodetypes="czzzzzzzzzzzzzzzzzzzcccc"
         inkscape:connector-curvature="0"
         id="path4605"
         d="m 917.50001,315.35531 c 0,0 17.75826,5.33027 26.50745,5.13047 8.74919,-0.1998 17.72416,-0.0567 24.7973,-5.98555 7.07314,-5.92887 13.76939,-18.43112 11.97111,-27.36254 -1.79828,-8.93142 -9.08481,-15.1211 -17.95666,-17.10158 -8.87185,-1.98048 -21.12767,2.90841 -28.21762,9.40587 -7.08995,6.49746 -13.01849,18.80014 -11.11603,25.65238 1.90246,6.85224 6.47508,6.92028 11.97111,8.55079 5.49603,1.63051 13.1779,1.58067 19.66682,-0.85508 6.48892,-2.43575 15.38899,-6.46925 17.10159,-13.68127 1.7126,-7.21202 -2.99334,-16.92824 -9.40587,-20.5219 -6.41253,-3.59366 -15.70905,-0.44391 -21.37698,2.56524 -5.66793,3.00915 -10.29919,8.40412 -11.11603,12.82619 -0.81684,4.42207 -0.28988,6.27486 3.42031,9.40587 3.71019,3.13101 12.60099,6.25832 18.81175,3.42032 6.21076,-2.838 14.89864,-12.18292 11.11603,-18.81175 -3.78261,-6.62883 -19.81057,-4.13165 -23.94222,0 -4.13165,4.13165 -2.81982,8.49044 0,11.11603 2.81982,2.62559 8.90997,0.92639 11.97111,-0.85508 3.06114,-1.78147 7.65322,-4.16244 5.13047,-7.69571 -2.52275,-3.53327 -16.2465,4.2754 -16.2465,4.2754 l -0.85508,0 0,0 0,0"
         style="fill:none;fill-rule:evenodd;stroke:#000000;stroke-width:1.29999995;stroke-linecap:butt;stroke-linejoin:miter;stroke-miterlimit:4;stroke-dasharray:none;stroke-opacity:1" /></g><g
       id="g6906"
       transform="matrix(0.80442361,0,0,0.84291077,-1.0181826,173.0135)"><g
         id="g4254"><path
           style="fill:none;fill-rule:evenodd;stroke:#000000;stroke-width:1.20000005;stroke-linecap:butt;stroke-linejoin:miter;stroke-miterlimit:4;stroke-dasharray:none;stroke-opacity:1"
           d="m 1.2092646,171.76783 c 0,0 41.9456564,-24.4561 64.0910254,-29.02235 22.145369,-4.56625 25.714013,-4.94014 44.74279,-2.41854 19.02878,2.5216 36.25265,7.7219 65.3003,15.72045 29.04765,7.99855 44.45898,5.18543 73.76514,0 29.30616,-5.18544 39.09852,-8.06541 58.04469,-13.30191 18.94617,-5.2365 21.07256,-8.3241 49.57986,-9.67412 28.5073,-1.35002 27.49352,-1.77726 61.67249,-19.34823 34.17898,-17.570966 42.40475,-37.228965 74.97442,-39.905738 32.56966,-2.676774 47.16131,7.255588 47.16131,7.255588 l 3.6278,1.209265"
           id="path4174"
           inkscape:connector-curvature="0"
           sodipodi:nodetypes="czzzzzzzzcc" /><path
           style="fill:none;fill-rule:evenodd;stroke:#000000;stroke-width:1.39999998;stroke-linecap:butt;stroke-linejoin:miter;stroke-miterlimit:4;stroke-dasharray:none;stroke-opacity:1"
           d="m 74.974408,193.53459 c 0,0 -16.521218,-18.28669 -22.976029,-22.97603 -6.454811,-4.68934 -12.208726,-5.89264 -18.138969,-7.25559 -5.930243,-1.36295 -16.929705,-1.20926 -16.929705,-1.20926 0,0 3.545728,17.65716 9.674117,22.97603 6.128389,5.31887 15.676262,4.88296 22.976028,6.04632 7.299766,1.16336 25.394558,2.41853 25.394558,2.41853 z"
           id="path4176"
           inkscape:connector-curvature="0"
           sodipodi:nodetypes="czzczzc" /><path
           style="fill:none;fill-rule:evenodd;stroke:#000000;stroke-width:1;stroke-linecap:butt;stroke-linejoin:miter;stroke-miterlimit:4;stroke-dasharray:none;stroke-opacity:1"
           d="m 62.881761,143.95474 c 0,0 -12.528331,-11.99778 -18.138969,-18.13897 -5.610638,-6.14119 -6.796832,-8.2067 -8.464852,-13.30191 -1.668021,-5.09521 -4.837059,-14.511176 -4.837059,-14.511176 l -6.046324,-6.046323 c 0,0 15.686047,9.790769 20.557499,13.301909 4.871451,3.51114 4.54108,2.23011 8.464853,7.25559 3.923773,5.02548 5.722703,11.39551 7.255587,16.92971 1.532884,5.5342 1.209265,14.51117 1.209265,14.51117 z"
           id="path4178"
           inkscape:connector-curvature="0"
           sodipodi:nodetypes="czzcczzzc" /><path
           style="fill:none;fill-rule:evenodd;stroke:#000000;stroke-width:1.29999995;stroke-linecap:butt;stroke-linejoin:miter;stroke-miterlimit:4;stroke-dasharray:none;stroke-opacity:1"
           d="m 65.30029,142.74548 c 0,0 1.005197,-21.98655 10.883382,-30.23162 9.878185,-8.24507 29.022348,-19.348232 29.022348,-19.348232 0,0 -2.05448,28.658302 -7.255579,33.859402 -15.720445,15.72044 -18.791533,9.03875 -24.185298,12.09265 -5.393765,3.0539 -8.464853,3.6278 -8.464853,3.6278 z"
           id="path4180"
           inkscape:connector-curvature="0"
           sodipodi:nodetypes="czcszc" /><path
           style="fill:none;fill-rule:evenodd;stroke:#000000;stroke-width:1.5;stroke-linecap:butt;stroke-linejoin:miter;stroke-miterlimit:4;stroke-dasharray:none;stroke-opacity:1"
           d="m 153.57661,147.58253 c 0,0 2.88462,-19.87804 9.67412,-35.06867 6.7895,-15.190627 8.19392,-14.204673 14.51117,-19.348234 6.31725,-5.143558 15.40979,-10.738688 24.18529,-14.511175 8.7755,-3.772487 24.1853,-7.255589 24.1853,-7.255589 l 22.97602,-1.209264"
           id="path4182"
           inkscape:connector-curvature="0"
           sodipodi:nodetypes="czzzcc" /><path
           style="fill:none;fill-rule:evenodd;stroke:#000000;stroke-width:1px;stroke-linecap:butt;stroke-linejoin:miter;stroke-opacity:1"
           d="m 171.71558,100.42121 c 0,0 -13.13072,4.76707 -19.34823,2.41853 -6.21752,-2.34854 -14.51118,-13.301908 -14.51118,-13.301908 0,0 8.64939,-1.655935 13.30191,-1.209265 4.65252,0.446671 10.17316,-0.07432 13.30191,2.41853 3.12875,2.492848 7.25559,9.674113 7.25559,9.674113 z"
           id="path4184"
           inkscape:connector-curvature="0"
           sodipodi:nodetypes="czczzc" /><path
           style="fill:none;fill-rule:evenodd;stroke:#000000;stroke-width:1px;stroke-linecap:butt;stroke-linejoin:miter;stroke-opacity:1"
           d="m 170.42038,98.711052 c 0,0 -7.53961,-3.76088 -9.67412,-8.464849 -2.13451,-4.703969 -3.67399,-10.877 -2.56524,-15.573731 1.10875,-4.696731 7.4023,-12.239355 7.4023,-12.239355 0,0 9.62896,8.669404 10.73667,15.72044 1.10771,7.051036 -5.89961,20.557495 -5.89961,20.557495 z"
           id="path4186"
           inkscape:connector-curvature="0"
           sodipodi:nodetypes="czzczc" /><path
           style="fill:none;fill-rule:evenodd;stroke:#000000;stroke-width:1px;stroke-linecap:butt;stroke-linejoin:miter;stroke-opacity:1"
           d="m 224.88584,72.512808 c 0,0 -5.63924,-12.901924 1.71016,-17.101584 l 11.9711,-6.840634 1e-5,13.681268 c 0,5.057521 -13.68127,10.26095 -13.68127,10.26095 z"
           id="path4188"
           inkscape:connector-curvature="0"
           sodipodi:nodetypes="cscsc" /><path
           style="fill:none;fill-rule:evenodd;stroke:#000000;stroke-width:1px;stroke-linecap:butt;stroke-linejoin:miter;stroke-opacity:1"
           d="m 223.17568,69.092492 c 0,0 9.07174,10.867408 15.39142,12.826188 6.31968,1.958779 11.08885,0.784655 17.10159,-0.855079 6.01275,-1.639735 23.08714,-11.116031 23.08714,-11.116031 0,0 -15.67645,-10.655584 -23.08714,-12.826187 -7.41068,-2.170603 -17.1813,0.305417 -23.08714,2.565237 -5.90584,2.25982 -9.40587,9.405872 -9.40587,9.405872 z"
           id="path4190"
           inkscape:connector-curvature="0"
           sodipodi:nodetypes="czzczzc" /><path
           style="fill:none;fill-rule:evenodd;stroke:#000000;stroke-width:1px;stroke-linecap:butt;stroke-linejoin:miter;stroke-opacity:1"
           d="m 175.29124,154.60042 c 0,0 0.14792,16.069 4.2754,21.37698 4.12748,5.30798 11.37798,6.30328 16.2465,8.55079 4.86852,2.24751 13.68127,5.13047 13.68127,5.13047 0,0 -2.61444,-8.41057 -5.13048,-12.82619 -2.51604,-4.41562 -6.11277,-8.94171 -11.11603,-12.82618 -5.00326,-3.88447 -17.95666,-9.40587 -17.95666,-9.40587 z"
           id="path4192"
           inkscape:connector-curvature="0"
           sodipodi:nodetypes="czzczzc" /><path
           style="fill:none;fill-rule:evenodd;stroke:#000000;stroke-width:1px;stroke-linecap:butt;stroke-linejoin:miter;stroke-opacity:1"
           d="m 205.59437,135.28998 c 0,0 -9.65555,14.26837 -13.62311,18.08188 -3.96756,3.81353 -8.82615,3.17668 -12.20913,3.53886 -3.38297,0.36218 -3.43238,1.17456 -3.43238,1.17456 0,0 3.84277,-17.0076 8.24833,-20.71603 4.40557,-3.70844 21.01629,-2.07927 21.01629,-2.07927 z"
           id="path4194"
           inkscape:connector-curvature="0"
           sodipodi:nodetypes="czzczc" /><path
           style="fill:none;fill-rule:evenodd;stroke:#000000;stroke-width:1.10000002;stroke-linecap:butt;stroke-linejoin:miter;stroke-miterlimit:4;stroke-dasharray:none;stroke-opacity:1"
           d="m 240.27726,162.29613 c 0,0 16.40968,21.00149 24.7973,28.21761 8.38761,7.21612 15.22747,12.12069 28.21762,17.10159 12.99015,4.9809 46.17427,6.84063 46.17427,6.84063 l -1.71016,-2.56524"
           id="path4196"
           inkscape:connector-curvature="0"
           sodipodi:nodetypes="czzcc" /><path
           style="fill:none;fill-rule:evenodd;stroke:#000000;stroke-width:1px;stroke-linecap:butt;stroke-linejoin:miter;stroke-opacity:1"
           d="m 306.97345,209.32548 c 0,0 2.3874,15.98664 6.84063,20.52191 4.45323,4.53527 17.10158,8.55079 17.10158,8.55079 0,0 -2.2349,-18.44598 -6.84063,-23.08714 -4.60573,-4.64116 -17.10158,-5.98556 -17.10158,-5.98556 z"
           id="path4198"
           inkscape:connector-curvature="0"
           sodipodi:nodetypes="czczc" /><path
           style="fill:none;fill-rule:evenodd;stroke:#000000;stroke-width:1px;stroke-linecap:butt;stroke-linejoin:miter;stroke-opacity:1"
           d="m 313.81407,210.18056 c 3.88955,-2.35528 7.88532,-8.96402 8.5508,-13.68126 0.66549,-4.71725 -1.71016,-14.53635 -1.71016,-14.53635 0,0 -14.10829,6.93311 -17.10159,11.97111 -2.9933,5.038 0.85508,14.53634 0.85508,14.53634 0,0 5.51633,4.06544 9.40587,1.71016 z"
           id="path4200"
           inkscape:connector-curvature="0"
           sodipodi:nodetypes="zzczcz" /><path
           style="fill:none;fill-rule:evenodd;stroke:#000000;stroke-width:1px;stroke-linecap:butt;stroke-linejoin:miter;stroke-opacity:1"
           d="m 352.99159,216.44312 c 0,0 -15.83014,-12.60107 -23.1369,-13.62381 -7.30676,-1.02274 -16.48121,6.25403 -16.48121,6.25403 0,0 7.09957,10.57124 14.34403,12.08045 7.24447,1.50921 25.27408,-4.71067 25.27408,-4.71067 z"
           id="path4202"
           inkscape:connector-curvature="0"
           sodipodi:nodetypes="czczc" /><path
           style="fill:none;fill-rule:evenodd;stroke:#000000;stroke-width:1.79999995;stroke-linecap:butt;stroke-linejoin:miter;stroke-miterlimit:4;stroke-dasharray:none;stroke-opacity:1"
           d="m 318.94455,136.64375 c 0,0 0.3624,-19.69557 5.13047,-29.92777 4.76807,-10.232209 15.41935,-22.378072 20.52191,-25.652379 5.10257,-3.274307 5.13047,-5.130475 5.13047,-5.130475"
           id="path4204"
           inkscape:connector-curvature="0"
           sodipodi:nodetypes="czzc" /><path
           style="fill:none;fill-rule:evenodd;stroke:#000000;stroke-width:1px;stroke-linecap:butt;stroke-linejoin:miter;stroke-opacity:1"
           d="m 321.50979,106.71598 c 0,0 -9.83825,0.56962 -10.26095,-3.42032 -0.4227,-3.989937 3.42031,-16.246504 3.42031,-16.246504 l 0,0 0,0 0,0 0,0 c 0,0 6.84064,25.794894 6.84064,22.232064 0,-2.56524 0,-2.56524 0,-2.56524 z"
           id="path4206"
           inkscape:connector-curvature="0"
           sodipodi:nodetypes="czcccccsc" /><path
           style="fill:none;fill-rule:evenodd;stroke:#000000;stroke-width:1px;stroke-linecap:butt;stroke-linejoin:miter;stroke-opacity:1"
           d="m 346.30709,76.788205 c 0,0 -2.74,-12.782126 -0.85508,-17.956664 1.88492,-5.174538 8.55079,-11.11603 8.55079,-11.11603 0,0 3.82128,11.070956 4.2754,14.536347 0.45412,3.465391 1.59915,4.448068 0,7.695713 -1.59915,3.247645 -11.97111,6.840634 -11.97111,6.840634 z"
           id="path4208"
           inkscape:connector-curvature="0"
           sodipodi:nodetypes="czczzc" /><path
           style="fill:none;fill-rule:evenodd;stroke:#000000;stroke-width:0.8250134px;stroke-linecap:butt;stroke-linejoin:miter;stroke-opacity:1"
           d="m 346.09488,78.133606 c 0,0 4.79843,8.822125 8.2064,10.756135 3.40798,1.934008 23.79293,-3.632175 23.79293,-3.632175 0,0 -13.93751,-10.116 -17.44205,-12.040029 -3.50453,-1.924029 -14.55728,4.916069 -14.55728,4.916069 z"
           id="path4210"
           inkscape:connector-curvature="0"
           sodipodi:nodetypes="czczc" /><path
           style="fill:none;fill-rule:evenodd;stroke:#000000;stroke-width:1px;stroke-linecap:butt;stroke-linejoin:miter;stroke-opacity:1"
           d="m 379.65518,62.251858 c 0,0 -14.61639,-1.035341 -20.5219,1.710159 -5.90552,2.745499 -13.68127,12.826188 -13.68127,12.826188 0,0 11.5245,-0.957568 16.2465,-1.710158 4.72199,-0.752591 9.49302,-0.877677 12.82619,-3.420317 3.33317,-2.54264 5.13048,-9.405872 5.13048,-9.405872 z"
           id="path4212"
           inkscape:connector-curvature="0"
           sodipodi:nodetypes="czczzc" /><path
           style="fill:none;fill-rule:evenodd;stroke:#000000;stroke-width:1px;stroke-linecap:butt;stroke-linejoin:miter;stroke-opacity:1"
           d="m 344.59693,134.07851 c 0,0 0.83167,10.99617 2.56524,14.53635 1.73357,3.54018 4.07401,4.50083 6.84063,5.98555 2.76661,1.48472 12.82619,8.55079 12.82619,8.55079 0,0 -0.74997,-12.47686 -2.56524,-15.39142 -1.81527,-2.91456 -3.27592,-7.84142 -5.98555,-9.40587 -2.70963,-1.56445 -13.68127,-4.2754 -13.68127,-4.2754 z"
           id="path4214"
           inkscape:connector-curvature="0"
           sodipodi:nodetypes="czzczzc" /><path
           style="fill:none;fill-rule:evenodd;stroke:#000000;stroke-width:1px;stroke-linecap:butt;stroke-linejoin:miter;stroke-opacity:1"
           d="m 393.33644,125.52772 c 0,0 -6.46862,10.59701 -4.27539,17.10158 2.19323,6.50458 14.53634,17.10159 14.53634,17.10159 0,0 3.31357,-15.23929 1.71016,-21.37698 -1.60341,-6.13769 -11.97111,-12.82619 -11.97111,-12.82619 z"
           id="path4216"
           inkscape:connector-curvature="0"
           sodipodi:nodetypes="czczc" /><path
           style="fill:none;fill-rule:evenodd;stroke:#000000;stroke-width:1px;stroke-linecap:butt;stroke-linejoin:miter;stroke-opacity:1"
           d="m 424.97437,127.23788 c 0,0 -9.39739,-7.02395 -15.39142,-6.84063 -5.99402,0.18332 -16.24651,8.55079 -16.24651,8.55079 0,0 2.80591,7.67411 8.55079,7.69571 5.74489,0.0216 23.08714,-9.40587 23.08714,-9.40587 z"
           id="path4218"
           inkscape:connector-curvature="0"
           sodipodi:nodetypes="czczc" /><path
           style="fill:none;fill-rule:evenodd;stroke:#000000;stroke-width:1.10000002;stroke-linecap:butt;stroke-linejoin:miter;stroke-miterlimit:4;stroke-dasharray:none;stroke-opacity:1"
           d="m 436.0904,104.15074 c 0,0 4.52497,10.14674 12.8262,14.53634 8.30122,4.38961 21.63001,7.31605 27.36253,7.69572 5.73252,0.37968 14.53634,2.56524 14.53634,2.56524 l 0,0 -8.55079,-3.42032 8.55079,0.85508"
           id="path4220"
           inkscape:connector-curvature="0"
           sodipodi:nodetypes="czzcczc" /><path
           style="fill:none;fill-rule:evenodd;stroke:#000000;stroke-width:1px;stroke-linecap:butt;stroke-linejoin:miter;stroke-opacity:1"
           d="m 462.59786,85.338997 c 0,0 -4.3625,-14.124397 -0.85508,-19.666822 3.50742,-5.542424 17.10159,-12.826189 17.10159,-12.826189 0,0 -2.05645,16.115057 -3.42032,19.666822 -1.36387,3.551766 -2.04866,4.311157 -4.2754,6.840634 -2.22674,2.529478 -8.55079,5.985555 -8.55079,5.985555 z"
           id="path4222"
           inkscape:connector-curvature="0"
           sodipodi:nodetypes="czczzc" /><path
           style="fill:none;fill-rule:evenodd;stroke:#000000;stroke-width:1px;stroke-linecap:butt;stroke-linejoin:miter;stroke-opacity:1"
           d="m 466.01818,124.67264 c 0,0 -1.61117,-5.28222 1.71016,-7.69571 3.32134,-2.4135 19.66682,-6.84064 19.66682,-6.84064 0,0 -7.79469,11.26778 -11.11603,13.68128 -3.32133,2.4135 -10.26095,0.85507 -10.26095,0.85507 z"
           id="path4224"
           inkscape:connector-curvature="0"
           sodipodi:nodetypes="czczc" /><path
           style="fill:none;fill-rule:evenodd;stroke:#000000;stroke-width:1px;stroke-linecap:butt;stroke-linejoin:miter;stroke-opacity:1"
           d="m 477.79741,128.33473 c 0,0 12.84846,-11.21236 18.49575,-12.59969 5.6473,-1.38733 21.81026,4.39413 21.81026,4.39413 0,0 -14.4882,9.07712 -19.77436,9.79428 -5.28615,0.71718 -20.53165,-1.58872 -20.53165,-1.58872 z"
           id="path4226"
           inkscape:connector-curvature="0"
           sodipodi:nodetypes="czczc" /><path
           style="fill:none;fill-rule:evenodd;stroke:#000000;stroke-width:0.89999998;stroke-linecap:butt;stroke-linejoin:miter;stroke-miterlimit:4;stroke-dasharray:none;stroke-opacity:1"
           d="m 509.62722,132.36836 c 1.98335,1.62193 2.43131,3.98439 4.2754,6.84063 1.84409,2.85624 2.56523,9.40587 2.56523,9.40587 0,0 -7.10284,1.53732 -11.11603,1.71016 -4.01319,0.17284 -8.98952,0.53534 -12.82618,-0.85508 -3.83666,-1.39042 -6.49605,-2.99297 -9.40588,-6.84063 -19.97992,-21.87585 16.1765,-18.1621 26.50746,-10.26095 z"
           id="path4228"
           inkscape:connector-curvature="0"
           sodipodi:nodetypes="czczzcc" /><path
           style="fill:none;fill-rule:evenodd;stroke:#000000;stroke-width:1px;stroke-linecap:butt;stroke-linejoin:miter;stroke-opacity:1"
           d="m 525.01864,76.788204 c 0,0 8.42153,-11.120025 14.53635,-13.681267 6.11482,-2.561241 11.02025,-3.591745 21.37698,-5.130476 10.35673,-1.538731 20.5219,0 20.5219,0 0,0 -7.99354,13.712746 -11.11603,18.811743 -3.12249,5.098998 -8.4427,8.485451 -12.82618,10.260952 -4.38348,1.7755 -7.7342,1.287437 -12.82619,0.855078 -5.09199,-0.432359 -19.66683,-11.11603 -19.66683,-11.11603 z"
           id="path4230"
           inkscape:connector-curvature="0"
           sodipodi:nodetypes="czzczzzc" /><path
           style="fill:none;fill-rule:evenodd;stroke:#000000;stroke-width:1px;stroke-linecap:butt;stroke-linejoin:miter;stroke-opacity:1"
           d="m 528.43896,75.078047 c 0,0 8.61742,27.091193 14.53635,33.348083 5.91893,6.25688 10.34209,6.66894 15.39143,7.69572 5.04934,1.02678 17.95666,0.85508 17.95666,0.85508 0,0 -9.32809,-16.73465 -13.68127,-22.232062 -4.35318,-5.497414 -9.74477,-8.949111 -15.39142,-11.971109 -5.64666,-3.021997 -18.81175,-7.695712 -18.81175,-7.695712 z"
           id="path4232"
           inkscape:connector-curvature="0"
           sodipodi:nodetypes="czzczzc" /></g><path
         sodipodi:nodetypes="czzzzzzzzzzzzcc"
         inkscape:connector-curvature="0"
         id="path4626"
         d="m 1.2092646,166.93077 c 0,0 28.7054734,-16.13328 42.3242624,-19.34824 13.618789,-3.21496 18.635674,-9.76094 35.068674,-8.46485 16.433,1.29609 59.864169,9.43754 76.183669,12.09265 16.3195,2.65511 10.08786,1.92534 21.76677,3.62779 11.67891,1.70245 30.92101,5.90599 48.37058,6.04633 17.44957,0.14034 48.91942,-6.02335 65.3003,-9.67412 16.38088,-3.65077 27.73465,-9.07189 38.69646,-12.09264 10.96181,-3.02075 6.80431,-2.73829 16.92971,-3.6278 10.1254,-0.88951 41.16908,-2.44263 51.99837,-6.04633 10.82929,-3.60371 10.02672,-6.40524 22.97603,-15.72043 12.94931,-9.31519 14.08033,-18.194316 30.23162,-25.394563 16.15129,-7.200247 34.92113,-17.697343 49.57984,-16.929705 14.65871,0.767638 44.7428,16.929705 44.7428,16.929705 l 0,0"
         style="fill:none;fill-rule:evenodd;stroke:#000000;stroke-width:1px;stroke-linecap:butt;stroke-linejoin:miter;stroke-opacity:1" /><path
         sodipodi:nodetypes="czccc"
         inkscape:connector-curvature="0"
         id="path4628"
         d="m 155.99514,151.21033 c 0,0 2.18629,-34.55658 13.30191,-48.37059 11.11561,-13.814011 48.37058,-27.813084 48.37058,-27.813084 l 10.88339,-1.209264 0,0"
         style="fill:none;fill-rule:evenodd;stroke:#000000;stroke-width:1px;stroke-linecap:butt;stroke-linejoin:miter;stroke-opacity:1" /><path
         inkscape:connector-curvature="0"
         id="path4630"
         d="M 170.50631,223.76621 Z"
         style="fill:none;fill-rule:evenodd;stroke:#000000;stroke-width:1px;stroke-linecap:butt;stroke-linejoin:miter;stroke-opacity:1" /><path
         sodipodi:nodetypes="czcc"
         inkscape:connector-curvature="0"
         id="path4632"
         d="m 241.85293,158.46592 c 0,0 23.85353,31.59967 35.06867,39.90573 11.21515,8.30606 29.02235,10.88338 29.02235,10.88338 l 0,0"
         style="fill:none;fill-rule:evenodd;stroke:#000000;stroke-width:1px;stroke-linecap:butt;stroke-linejoin:miter;stroke-opacity:1" /><path
         sodipodi:nodetypes="czcccccc"
         inkscape:connector-curvature="0"
         id="path4634"
         d="m 322.87366,133.07136 c 0,0 2.79536,-27.22428 7.25559,-36.277943 4.46022,-9.053659 18.13897,-15.720437 18.13897,-15.720437 l 0,0 0,0 0,-1.209265 0,0 -1.20927,-2.418529"
         style="fill:none;fill-rule:evenodd;stroke:#000000;stroke-width:1px;stroke-linecap:butt;stroke-linejoin:miter;stroke-opacity:1" /><path
         sodipodi:nodetypes="czcc"
         inkscape:connector-curvature="0"
         id="path4636"
         d="m 437.7538,101.63048 c 0,0 7.82947,12.0123 13.30191,14.51118 5.47244,2.49887 14.51117,3.62779 14.51117,3.62779 l 0,0"
         style="fill:none;fill-rule:evenodd;stroke:#000000;stroke-width:1px;stroke-linecap:butt;stroke-linejoin:miter;stroke-opacity:1" /><path
         sodipodi:nodetypes="czcc"
         inkscape:connector-curvature="0"
         id="path4638"
         d="m 15.72044,162.09371 c 0,0 8.402708,16.54216 18.13897,21.76677 9.736262,5.22461 35.068674,4.83705 35.068674,4.83705 l 0,0"
         style="fill:none;fill-rule:evenodd;stroke:#000000;stroke-width:1px;stroke-linecap:butt;stroke-linejoin:miter;stroke-opacity:1" /><path
         sodipodi:nodetypes="czcc"
         inkscape:connector-curvature="0"
         id="path4642"
         d="m 65.30029,139.11768 c 0,0 -0.753032,-16.31267 2.418529,-22.97602 3.171562,-6.66336 16.929706,-12.09265 16.929706,-12.09265 l 3.627794,1.20926"
         style="fill:none;fill-rule:evenodd;stroke:#000000;stroke-width:1px;stroke-linecap:butt;stroke-linejoin:miter;stroke-opacity:1" /><path
         sodipodi:nodetypes="czc"
         inkscape:connector-curvature="0"
         id="path4644"
         d="m 530.86718,73.817392 c 0,0 4.16107,-5.073406 12.09264,-8.464853 7.93157,-3.391447 36.27794,-7.255588 36.27794,-7.255588"
         style="fill:none;fill-rule:evenodd;stroke:#000000;stroke-width:1px;stroke-linecap:butt;stroke-linejoin:miter;stroke-opacity:1" /><path
         sodipodi:nodetypes="czccc"
         inkscape:connector-curvature="0"
         id="path4646"
         d="m 227.34175,70.189598 c 0,0 5.58865,9.889817 13.30191,10.883382 7.71326,0.993564 30.23162,-7.255588 30.23162,-7.255588 l 0,0 -1.20927,-2.41853"
         style="fill:none;fill-rule:evenodd;stroke:#000000;stroke-width:1px;stroke-linecap:butt;stroke-linejoin:miter;stroke-opacity:1" /><path
         sodipodi:nodetypes="czc"
         inkscape:connector-curvature="0"
         id="path4648"
         d="m 174.13411,154.83812 c 0,0 3.44535,11.81906 7.25559,16.92971 3.81024,5.11064 13.30191,13.30191 13.30191,13.30191"
         style="fill:none;fill-rule:evenodd;stroke:#000000;stroke-width:1px;stroke-linecap:butt;stroke-linejoin:miter;stroke-opacity:1" /><path
         sodipodi:nodetypes="czc"
         inkscape:connector-curvature="0"
         id="path4650"
         d="m 314.40881,209.25503 c 0,0 6.48221,-0.94718 10.88338,0 4.40117,0.94718 14.51117,4.83706 14.51117,4.83706"
         style="fill:none;fill-rule:evenodd;stroke:#000000;stroke-width:1px;stroke-linecap:butt;stroke-linejoin:miter;stroke-opacity:1" /><path
         sodipodi:nodetypes="czccc"
         inkscape:connector-curvature="0"
         id="path4652"
         d="m 305.94395,206.8365 c 0,0 -3.71164,-3.84535 -1.20926,-8.46485 2.50238,-4.6195 9.67412,-14.51118 9.67412,-14.51118 l 0,0 0,-1.20926"
         style="fill:none;fill-rule:evenodd;stroke:#000000;stroke-width:1px;stroke-linecap:butt;stroke-linejoin:miter;stroke-opacity:1" /><path
         sodipodi:nodetypes="czc"
         inkscape:connector-curvature="0"
         id="path4654"
         d="m 476.45027,124.60651 c 0,0 8.98899,23.12521 15.72044,26.60382 6.73145,3.47861 14.51117,-1.20927 14.51117,-1.20927"
         style="fill:none;fill-rule:evenodd;stroke:#000000;stroke-width:1px;stroke-linecap:butt;stroke-linejoin:miter;stroke-opacity:1" /><path
         sodipodi:nodetypes="czc"
         inkscape:connector-curvature="0"
         id="path4658"
         d="m 527.23938,77.445186 c 0,0 6.20933,29.706294 14.51118,36.277934 8.30185,6.57164 24.18529,3.6278 24.18529,3.6278"
         style="fill:none;fill-rule:evenodd;stroke:#000000;stroke-width:1px;stroke-linecap:butt;stroke-linejoin:miter;stroke-opacity:1" /></g></g></svg>